<svg xmlns="http://www.w3.org/2000/svg" aria-hidden="true" style="position:absolute;width:0;height:0;overflow:hidden">
  <defs>
    <symbol id="icon-address" viewBox="0 0 27 32">
      <path fill="#b1040e" d="M14.095 0C10.762.004 7.567 1.329 5.21 3.686s-3.683 5.552-3.686 8.885c0 10.757 11.429 18.882 11.916 19.222.192.135.421.207.656.207s.464-.072.656-.207c.487-.34 11.916-8.464 11.916-19.222-.004-3.333-1.329-6.528-3.686-8.885S17.43.003 14.097 0zm0 8c.904 0 1.788.268 2.54.77s1.338 1.216 1.684 2.052c.346.835.437 1.755.26 2.641s-.612 1.701-1.251 2.341c-.639.639-1.454 1.075-2.341 1.251s-1.806.086-2.641-.26-1.549-.932-2.052-1.684-.77-1.636-.77-2.54c0-1.212.482-2.375 1.339-3.232S12.883 8 14.096 8z" style="fill:var(--color1, #b1040e)"/>
    </symbol>
    <symbol id="icon-call" viewBox="0 0 32 32">
      <path fill="#424852" d="M30.729 24.919 24.123 21.1c-.725-.419-1.666-.208-2.143.481L20.654 23.5c-.236.342-.694.459-1.066.27l-1.539-.78c-1.977-1.002-3.774-2.305-5.341-3.872s-2.87-3.364-3.872-5.341l-.78-1.539c-.188-.371-.072-.829.27-1.066l1.919-1.326c.689-.476.901-1.417.481-2.143L6.907 1.097C6.524.434 5.719.129 4.993.371 3.401.902 2.053 1.99 1.198 3.434l-.486.821c-.628 1.061-.766 2.34-.377 3.51 1.826 5.499 4.958 10.572 9.055 14.67s9.17 7.229 14.67 9.056c.437.145.89.217 1.341.217.755 0 1.505-.201 2.168-.594l.821-.486c1.444-.856 2.532-2.203 3.063-3.796.242-.726-.063-1.531-.726-1.914zm-8.377-3.08c.343-.497 1.022-.65 1.545-.347l.95.549c-.764-.153-1.572.069-2.153.625l-.654-.374.312-.452zm5.81 8.402-.821.486c-.948.561-2.092.685-3.137.337-5.433-1.805-10.444-4.899-14.493-8.946S2.57 13.059.765 7.626C.418 6.58.54 5.437 1.102 4.489l.486-.821c.8-1.35 2.061-2.368 3.55-2.864.121-.04.245-.059.366-.059.408 0 .801.215 1.014.583l.859 1.486c-.61-.503-1.406-.748-2.21-.657l-.258-.452c-.062-.108-.2-.146-.308-.084s-.146.2-.084.308l4.646 8.12-1.092.754c-.527.364-.706 1.07-.417 1.641l.78 1.539c1.024 2.019 2.355 3.855 3.956 5.456s3.437 2.932 5.456 3.955l1.539.78c.572.29 1.277.11 1.641-.417l.756-1.094 8.807 5.04c-.559 1.045-1.395 1.926-2.428 2.537z" style="fill:var(--color2, #424852)"/>
    </symbol>
    <symbol id="icon-clock" viewBox="0 0 32 32">
      <path fill="#b1040e" d="M16 0c-3.165 0-6.258.938-8.889 2.696S2.429 6.953 1.218 9.877C.007 12.801-.31 16.018.308 19.121s2.141 5.955 4.379 8.192c2.238 2.238 5.089 3.761 8.192 4.379s6.321.3 9.244-.911c2.924-1.211 5.422-3.262 7.18-5.893S32 19.163 32 15.999c-.004-4.242-1.692-8.309-4.691-11.309S20.242.003 16-.001zm8.616 17.231h-8.615c-.326 0-.639-.13-.87-.36s-.36-.544-.36-.87V7.386c0-.326.13-.639.36-.87s.544-.36.87-.36c.326 0 .639.13.87.36s.36.544.36.87v7.385h7.385c.326 0 .639.13.87.36s.361.544.361.87c0 .326-.13.639-.361.87s-.544.36-.87.36z" style="fill:var(--color1, #b1040e)"/>
    </symbol>
    <symbol id="icon-facebook" viewBox="0 0 32 32">
      <path fill="#fff" d="M12.264 28.667h5.333v-10.68h4.805l.528-5.307h-5.333V10c0-.354.141-.693.391-.943s.589-.391.943-.391h4V3.333h-4c-1.768 0-3.464.702-4.714 1.953S12.264 8.232 12.264 10v2.68H9.597l-.528 5.307h3.195v10.68z" style="fill:var(--color3, #fff)"/>
    </symbol>
    <symbol id="icon-clinic" viewBox="0 0 32 32">
      <path fill="#424852" d="M31.656 31.258h-8.5V13.051h6.624V30.37c0 .125.101.226.226.226s.226-.101.226-.226V13.051h.295c.365 0 .662-.297.662-.662v-.994c0-.365-.297-.661-.662-.661h-2.26v-2.59h.573c.125 0 .226-.101.226-.226s-.101-.226-.226-.226h-5.683V7.08h.757c.365 0 .661-.297.661-.662v-.994c0-.365-.297-.662-.661-.662H12.687V.741h6.973v3.031c0 .125.101.226.226.226s.226-.101.226-.226V.741h.379c.125 0 .226-.101.226-.226s-.101-.226-.226-.226h-8.633c-.125 0-.226.101-.226.226s.101.226.226.226h.379v4.021H8.435c-.365 0-.662.297-.662.662v.994c0 .365.297.662.662.662h.757v3.653H4.533v-2.59h3.684c.125 0 .226-.101.226-.226s-.101-.226-.226-.226H3.509c-.125 0-.226.101-.226.226s.101.226.226.226h.573v2.59h-2.26c-.365 0-.661.297-.661.661v.994c0 .365.297.662.661.662h.295v18.207H.692c-.125 0-.226.101-.226.226s.101.226.226.226H31.66c.125 0 .226-.101.226-.226s-.101-.226-.226-.226zm-8.5-23.114h4.659v2.59h-4.659v-2.59zm0 3.041h2.061c-.403.219-.722.584-.875 1.039-.045.133-.025.267.039.375h-1.224v-1.414zM1.818 12.599c-.116 0-.21-.094-.21-.21v-.994c0-.116.094-.21.21-.21h2.125c-.392.216-.701.574-.847 1.019-.046.14-.023.282.047.395H1.819zm7.37 18.659H2.564V13.051h6.624v18.207zM8.432 6.629c-.116 0-.21-.094-.21-.21v-.994c0-.116.094-.21.21-.21h3.12c-.446.214-.819.57-1.05 1.028-.066.131-.056.272.004.386H8.432zm14.272 6.195v18.434H9.639V7.08h13.065v5.744z" style="fill:var(--color2, #424852)"/>
    </symbol>
    <symbol id="icon-instagram" viewBox="0 0 32 32">
      <path fill="#fff" d="M16.001 12c-1.061 0-2.078.421-2.828 1.172S12.001 14.94 12.001 16c0 1.061.421 2.078 1.172 2.828S14.941 20 16.001 20c1.061 0 2.078-.421 2.828-1.172S20.001 17.06 20.001 16c0-1.061-.421-2.078-1.172-2.828S17.061 12 16.001 12zm0-2.667c1.768 0 3.464.702 4.714 1.953s1.953 2.946 1.953 4.714-.702 3.464-1.953 4.714c-1.25 1.25-2.946 1.953-4.714 1.953s-3.464-.702-4.714-1.953c-1.25-1.25-1.953-2.946-1.953-4.714s.702-3.464 1.953-4.714c1.25-1.25 2.946-1.953 4.714-1.953zM24.668 9c0 .442-.176.866-.488 1.178s-.737.488-1.179.488c-.442 0-.866-.176-1.179-.488s-.488-.736-.488-1.178c0-.442.176-.866.488-1.178s.737-.488 1.179-.488c.442 0 .866.176 1.179.488s.488.736.488 1.178zm-8.667-3.667c-3.299 0-3.837.009-5.372.077-1.045.049-1.747.189-2.397.443-.545.2-1.037.52-1.44.937-.417.403-.738.895-.939 1.44-.253.653-.393 1.353-.441 2.397-.069 1.472-.079 1.987-.079 5.372 0 3.3.009 3.837.077 5.372.049 1.044.189 1.747.441 2.396.227.58.493.997.936 1.44.449.448.867.716 1.44.937.659.255 1.36.396 2.4.444 1.472.069 1.987.077 5.372.077 3.3 0 3.837-.009 5.372-.077 1.043-.049 1.744-.189 2.396-.441.544-.201 1.036-.521 1.44-.937.449-.448.717-.865.939-1.44.253-.656.395-1.357.443-2.4.069-1.471.077-1.987.077-5.371 0-3.299-.009-3.837-.077-5.372-.049-1.043-.191-1.747-.443-2.397-.201-.544-.521-1.036-.937-1.44-.403-.418-.895-.738-1.44-.939-.653-.253-1.355-.393-2.397-.441-1.471-.069-1.985-.077-5.372-.077zM16 2.667c3.623 0 4.075.013 5.497.08 1.419.067 2.387.289 3.236.62.88.339 1.621.797 2.363 1.537.678.667 1.203 1.473 1.537 2.363.329.849.553 1.817.62 3.237.063 1.421.08 1.873.08 5.496s-.013 4.075-.08 5.496c-.067 1.42-.291 2.387-.62 3.237-.334.89-.859 1.697-1.537 2.363-.667.678-1.473 1.202-2.363 1.537-.849.329-1.817.553-3.236.62-1.423.063-1.875.08-5.497.08s-4.075-.013-5.497-.08c-1.419-.067-2.385-.291-3.236-.62-.89-.334-1.697-.859-2.363-1.537-.678-.666-1.203-1.473-1.537-2.363-.331-.849-.553-1.817-.62-3.237-.064-1.421-.08-1.873-.08-5.496s.013-4.075.08-5.496c.067-1.42.289-2.387.62-3.237.334-.89.858-1.697 1.537-2.363.666-.678 1.473-1.203 2.363-1.537.849-.331 1.816-.553 3.236-.62 1.424-.063 1.876-.08 5.499-.08z" style="fill:var(--color3, #fff)"/>
    </symbol>
    <symbol id="icon-like" viewBox="0 0 33 32">
      <path fill="#424852" d="M23.551 18.39c.374-.238.64-.634.698-1.1.015-.12-.071-.229-.191-.244s-.229.071-.244.191c-.067.543-.531.953-1.079.953-.121 0-.219.098-.219.219s.098.219.219.219h.082c.554 0 1.004.451 1.004 1.004v.968c0 .554-.451 1.004-1.004 1.004h-.874c-.121 0-.219.098-.219.219s.098.219.219.219h.456c.554 0 1.004.451 1.004 1.004v.968c0 .554-.451 1.004-1.004 1.004h-.456c-.121 0-.219.098-.219.219s.098.219.219.219c.551 0 1.002.449 1.004 1l.004.968c.001.269-.102.523-.293.713s-.442.296-.712.296H11.664c-.723 0-1.439-.188-2.069-.542l-1.364-.767c-.105-.059-.239-.022-.298.083s-.022.239.083.298l1.364.767c.696.391 1.485.598 2.283.598h10.282c.386 0 .749-.151 1.022-.424s.422-.637.42-1.024l-.004-.968c-.002-.432-.195-.819-.499-1.083.556-.2.955-.733.955-1.358v-.968c0-.44-.198-.834-.51-1.099.542-.207.928-.733.928-1.347v-.968c.001-.527-.284-.99-.708-1.241zM8.132 16.92c.634-.422 1.177-.99 1.573-1.641l2.234-3.683c.403-.663.615-1.423.614-2.198l-.001-2.136c0-.238.049-.469.146-.686.185-.416.663-.616 1.089-.453l.078.029c.727.277 1.276.893 1.469 1.646l.014.054c.394 1.546.453 3.126.174 4.697-.113.633-.225 1.263-.306 1.72-.042.234.022.473.174.655s.377.287.614.287h2.816c.121 0 .219-.098.219-.219s-.098-.219-.219-.219h-2.816c-.108 0-.21-.047-.279-.131s-.098-.191-.079-.297c.082-.457.194-1.088.307-1.721.29-1.633.229-3.275-.181-4.882l-.014-.054c-.227-.892-.877-1.619-1.737-1.947l-.078-.029c-.643-.245-1.366.056-1.645.684-.122.274-.183.564-.183.864l.001 2.136c0 .695-.191 1.377-.551 1.971L9.331 15.05c-.363.597-.861 1.117-1.442 1.504l-.608.406c-.068-.489-.489-.868-.997-.868H2.04c-.556 0-1.008.452-1.008 1.008v9.856c0 .556.452 1.008 1.008 1.008h4.245c.556 0 1.008-.452 1.008-1.008V17.48l.841-.56zm-6.093-.389h4.245c.314 0 .57.256.57.57v.868H4.81c-1.534 0-2.841.97-3.342 2.329v-3.197c.001-.314.256-.57.571-.57zm1.195 8.922c0-.512.415-.927.928-.927s.928.415.928.927-.415.927-.928.927-.928-.416-.928-.927z" style="fill:var(--color2, #424852)"/>
      <path fill="#b1040e" d="M24.223 2.45c-3.881 0-7.027 3.146-7.027 7.027s3.146 7.027 7.027 7.027c3.881 0 7.027-3.146 7.027-7.027S28.104 2.45 24.223 2.45zm3.553 7.729-.433.366c-1.069.904-2.022 1.937-2.837 3.074-.139.194-.427.194-.567 0-.816-1.137-1.769-2.17-2.837-3.074l-.433-.366c-.984-.833-1.047-2.329-.135-3.241.861-.861 2.256-.861 3.117 0l.571.571.571-.571c.861-.861 2.256-.861 3.117 0 .913.912.851 2.408-.134 3.241z" style="fill:var(--color1, #b1040e)"/>
      <path fill="#d4e1e8" d="m9.64 26.353.572.343c.531.319 1.139.487 1.758.487h5.433c.389 0 .704-.315.704-.704v-.395c0-.971-.676-1.811-1.624-2.019l-6.472-1.42c-.713-.156-1.388.386-1.388 1.116v.794c0 .738.386 1.42 1.018 1.798z" style="fill:var(--color4, #d4e1e8)"/>
    </symbol>
    <symbol id="icon-linkedin" viewBox="0 0 32 32">
      <path fill="#fff" d="M9.253 6.667c0 .707-.282 1.385-.782 1.885s-1.179.78-1.886.78c-.707 0-1.385-.282-1.885-.782s-.78-1.179-.78-1.886c0-.707.282-1.385.782-1.885s1.179-.78 1.886-.78c.707 0 1.385.282 1.885.782s.78 1.179.78 1.886zm.08 4.64H4V28h5.333V11.307zm8.427 0h-5.307V28h5.253v-8.76c0-4.88 6.36-5.333 6.36 0V28h5.267V17.427c0-8.227-9.413-7.92-11.627-3.88l.053-2.24z" style="fill:var(--color3, #fff)"/>
    </symbol>
    <symbol id="icon-mail" viewBox="0 0 29 32">
      <path fill="#424852" d="M27.051 31.621H1.961c-.921 0-1.671-.75-1.671-1.671V12.57c0-.592.264-1.146.725-1.518l3.852-3.117c.097-.078.239-.063.317.034s.063.239-.034.317l-3.852 3.117c-.354.286-.557.712-.557 1.167v17.38c0 .672.547 1.219 1.219 1.219h25.09c.672 0 1.219-.547 1.219-1.219V18.527c0-.125.101-.226.226-.226s.226.101.226.226V29.95c0 .921-.75 1.67-1.671 1.67zm-8.06-27.338c-.05 0-.1-.016-.142-.05L14.751.918c-.142-.115-.348-.115-.49 0l-4.098 3.315c-.097.078-.239.063-.317-.034s-.063-.239.034-.317L13.978.567c.306-.248.752-.248 1.058 0l4.098 3.315c.097.079.112.221.034.317-.044.055-.11.084-.175.084z" style="fill:var(--color2, #424852)"/>
      <path fill="#424852" d="m11.7 4.057 1.426-1.154c1.294-1.047 3.144-1.047 4.438 0l1.426 1.154h-7.291zm-8.43 9.959 1.739 1.365-.072-5.663-1.688 1.366c-.936.757-.926 2.188.021 2.931z" style="fill:var(--color2, #424852)"/>
    </symbol>
    <symbol id="icon-phone" viewBox="0 0 32 32">
      <path fill="#b1040e" d="M31.981 24.173c-.285 2.168-1.35 4.158-2.995 5.599s-3.759 2.233-5.945 2.229c-12.704 0-23.04-10.336-23.04-23.04-.004-2.187.788-4.3 2.229-5.946S5.66.305 7.829.02c.548-.067 1.103.045 1.583.32s.857.697 1.076 1.203l3.379 7.544v.019c.168.388.238.811.202 1.233s-.175.827-.405 1.182c-.029.043-.059.083-.091.123l-3.331 3.949c1.198 2.435 3.746 4.96 6.213 6.162l3.894-3.314c.038-.032.078-.062.12-.09.354-.236.761-.38 1.185-.419s.851.028 1.242.195l.021.01 7.538 3.378c.508.219.931.596 1.206 1.076s.388 1.035.322 1.584zM20.48 12.8h6.4c.339 0 .665-.135.905-.375s.375-.566.375-.905c0-.339-.135-.665-.375-.905s-.566-.375-.905-.375h-3.309l5.494-5.494c.24-.24.375-.566.375-.906s-.135-.665-.375-.906c-.24-.24-.566-.375-.906-.375s-.665.135-.906.375L21.758 8.43V5.12c0-.34-.135-.665-.375-.905s-.566-.375-.905-.375c-.339 0-.665.135-.905.375s-.375.566-.375.905v6.4c0 .339.135.665.375.905s.566.375.905.375z" style="fill:var(--color1, #b1040e)"/>
    </symbol>
    <symbol id="icon-technology" viewBox="0 0 33 32">
      <path fill="#d4e1e8" d="M7.379 27.893c-.148.244-.321.508-.524.694-.204.187-.448-.04-.663-.322-.162-.213-.501-.099-.501.168v1.963c0 .333.27.604.604.604h.958c.334 0 .604-.27.604-.604v-2.37c0-.261-.343-.356-.478-.133zm19.619 0c-.148.244-.321.508-.524.694s-.448-.04-.663-.322c-.162-.213-.501-.099-.501.168v1.963c0 .333.27.604.604.604h.957c.334 0 .604-.27.604-.604v-2.37c0-.261-.343-.356-.478-.133z" style="fill:var(--color4, #d4e1e8)"/>
      <path fill="#b1040e" d="M17.47 1.363c.154-.149.014-.407-.195-.355-1.129.279-2.09.853-2.861 1.757-.763.895-1.032 2.11-.731 3.247l.63 2.377c.039.146.17.247.321.247h2.629c.2 0 .319-.221.211-.389l-2.121-3.255c-.268-.412-.257-.95.036-1.344.549-.739 1.271-1.504 2.082-2.284zM26.393 1c-1.006 0-2.818 4.545-2.818 6.101s1.261 1.534 2.818 1.534c1.556 0 2.817.022 2.817-1.534S27.398 1 26.393 1zM6.773 1C4.665 1 2.956 2.709 2.956 4.817s1.709 3.817 3.817 3.817 3.817-1.709 3.817-3.817S8.881 1 6.773 1zm0 5.68c-1.029 0-1.863-.834-1.863-1.863s.834-1.863 1.863-1.863 1.863.834 1.863 1.863S7.802 6.68 6.773 6.68z" style="fill:var(--color1, #b1040e)"/>
      <path fill="#424852" d="m17.845 13.989-.46-.154V9.377c0-.121-.098-.219-.219-.219s-.219.098-.219.219v4.311l-.408-.137c-.294-.099-.618-.099-.912 0l-.408.137V9.377c0-.121-.098-.219-.219-.219s-.219.098-.219.219v4.458l-.46.154c-.584.196-.976.741-.976 1.357v7.598c0 .789.642 1.431 1.431 1.431h.004v6.021c0 .454.369.823.823.823h.957c.454 0 .823-.369.823-.823v-5.114c0-.121-.098-.219-.219-.219s-.219.098-.219.219v5.114c0 .212-.173.385-.385.385h-.957c-.213 0-.385-.173-.385-.385v-6.021h2.17c.789 0 1.431-.642 1.431-1.431v-7.598c0-.616-.392-1.161-.976-1.357zm-3.384.415 1.305-.439c.102-.034.209-.051.317-.051s.215.017.317.051l1.305.439c.284.096.503.311.608.578l-4.53 2.342v-1.978c0-.427.272-.806.677-.942zm-.677 3.412 1.874-.969c-.529.539-.915 1.211-1.104 1.957-.003.011-.006.023-.009.034-.054.219.053.416.221.514l-.982.508v-2.045zm3.605 6.122h-2.611c-.548 0-.994-.446-.994-.994v-2.59l4.599-2.378v2.045l-3.761 1.944c-.107.055-.149.187-.094.295.039.075.115.118.194.118.034 0 .068-.008.1-.024l3.56-1.84v2.43c0 .548-.446.994-.994.994zm-7.914-8.905c-.107-.482-.458-.882-.94-1.044l-.46-.155V9.241c0-.121-.098-.219-.219-.219s-.219.098-.219.219v4.446l-.408-.137c-.294-.099-.618-.099-.912 0l-.408.137V9.24c0-.121-.098-.219-.219-.219s-.219.098-.219.219v4.594l-.46.154c-.584.196-.976.741-.976 1.357v7.598c0 .789.642 1.431 1.431 1.431h.004v6.021c0 .454.369.823.823.823h.957c.454 0 .823-.369.823-.823v-6.021h.004c.789 0 1.431-.642 1.431-1.431v-7.598c0-.104-.012-.207-.034-.306-.001-.002-.001-.005-.001-.007zm-.402 2.45-4.599 2.378v-2.045l4.599-2.378v2.045zm-4.599 2.871 1.929-.997c-.544.543-.941 1.226-1.133 1.986-.003.011-.006.023-.009.034-.053.214.049.406.209.506l-.997.516v-2.045zm.677-5.95 1.305-.439c.102-.034.209-.051.317-.051s.215.017.317.051l1.305.439c.284.096.503.311.608.579l-4.53 2.342v-1.978c0-.427.272-.806.677-.942zm2.486 15.992c0 .212-.173.385-.385.385h-.957c-.213 0-.385-.173-.385-.385v-6.021h1.728v6.021zm.442-6.458H5.468c-.548 0-.994-.446-.994-.994v-.053l4.599-2.378v2.43c0 .548-.446.994-.994.994zm20.075-9.949-.46-.154V9.377c0-.121-.098-.219-.219-.219s-.219.098-.219.219v4.311l-.408-.137c-.294-.099-.618-.099-.912 0l-.408.137V9.377c0-.121-.098-.219-.219-.219s-.219.098-.219.219v4.457l-.46.155c-.584.196-.976.741-.976 1.357v7.598c0 .789.642 1.431 1.431 1.431h.004v6.021c0 .454.369.823.823.823h.957c.454 0 .823-.369.823-.823v-6.021h.004c.789 0 1.431-.642 1.431-1.431v-7.598c0-.616-.392-1.161-.976-1.357zm.538 3.494-4.599 2.378v-2.045l4.599-2.377v2.045zm-4.599 2.871 1.874-.969c-.529.539-.915 1.211-1.104 1.957-.003.011-.006.023-.009.034-.054.219.053.416.221.514l-.982.508v-2.045zm.678-5.95 1.305-.439c.102-.034.209-.051.317-.051s.215.017.317.051l1.305.439c.284.096.503.311.608.579l-4.53 2.342v-1.978c0-.427.272-.806.677-.942zm2.486 15.992c0 .212-.173.385-.385.385h-.957c-.212 0-.385-.173-.385-.385v-6.021h1.728v6.021zm.441-6.458h-2.611c-.548 0-.994-.446-.994-.994v-.053l4.599-2.378v2.43c0 .548-.446.994-.994.994z" style="fill:var(--color2, #424852)"/>
    </symbol>
    <symbol id="icon-tooth" viewBox="0 0 32 32">
      <path fill="#424852" d="m31.458 27.415-4.663-4.663c-.102-.102-.237-.158-.382-.158-.068 0-.134.013-.195.037l-1.355-1.355.621-.621c.196-.196.264-.492.172-.755-.041-.117-.17-.179-.288-.138s-.179.17-.138.288c.035.099.01.211-.065.285l-2.747 2.747c-.074.074-.186.099-.285.065l-.719-.253c.746-.375 1.446-.874 2.068-1.496 1.52-1.52 2.357-3.541 2.357-5.692s-.837-4.171-2.357-5.692c-1.294-1.294-2.952-2.093-4.743-2.302l.214-.952c.288-1.283.086-2.607-.568-3.728C17.202 1.004 14.886.031 12.619.609l-.416.106c-1.669.426-3.441.426-5.11 0L6.677.609C4.918.16 3.091.647 1.789 1.912S-.054 4.989.344 6.76l1.005 4.477c.308 1.375.465 2.787.465 4.197v7.185c0 2.855.597 5.623 1.774 8.225.201.444.617.71 1.09.71.055 0 .11-.004.166-.011.539-.07.945-.463 1.034-.999l1.761-10.572c.144-.866.601-1.646 1.289-2.198.292-.235.671-.313 1.029-.216.338 1.443 1.07 2.766 2.144 3.84 1.368 1.368 3.111 2.14 4.901 2.315-.135 2.408-.706 4.745-1.701 6.945-.17.376-.517.473-.786.438s-.579-.218-.648-.625l-1.34-8.046c-.021-.123-.137-.206-.26-.186s-.206.137-.186.26l1.34 8.046c.089.536.495.928 1.034.999.056.007.112.011.166.011.472 0 .889-.266 1.09-.71 1.017-2.25 1.602-4.637 1.741-7.1.113.005.226.008.339.008 1.03 0 2.061-.196 3.03-.588l1.164.41c.078.027.159.041.239.041.19 0 .377-.074.515-.212l.621-.621 1.355 1.355c-.074.194-.034.421.121.577l4.663 4.663c.102.102.237.158.382.158s.28-.056.382-.158l1.197-1.197c.211-.211.211-.554.001-.765zm-22.82-9.989c-.771.619-1.285 1.497-1.448 2.473L5.429 30.472c-.068.408-.379.59-.648.625s-.616-.061-.786-.438c-1.15-2.543-1.734-5.248-1.734-8.039v-7.185c0-1.443-.16-2.888-.476-4.295L.78 6.663C.417 5.046.91 3.392 2.099 2.237S4.956.638 6.562 1.048l.409.105.229.075c1.441.47 2.548 1.68 2.888 3.157.024.105.117.175.22.175.017 0 .034-.002.051-.006.121-.028.197-.149.17-.271-.267-1.161-.963-2.172-1.916-2.845 1.237.118 2.494.024 3.699-.284l.416-.106c2.068-.528 4.184.361 5.264 2.212.597 1.023.781 2.231.517 3.403l-.227 1.011c-.165-.01-.329-.015-.495-.015-2.15 0-4.171.837-5.692 2.357s-2.357 3.541-2.357 5.692c0 .465.039.924.116 1.373-.429-.055-.866.064-1.217.346zm3.779 3.653c-1.435-1.435-2.225-3.343-2.225-5.372s.79-3.937 2.225-5.372S15.76 8.11 17.789 8.11c2.03 0 3.937.79 5.372 2.225s2.225 3.343 2.225 5.372-.79 3.937-2.225 5.372c-2.963 2.962-7.783 2.962-10.745 0zm12.127.516 1.323 1.323-.867.867-1.323-1.323.867-.867zm6.594 6.264-1.197 1.197c-.023.023-.049.026-.063.026s-.04-.003-.063-.026l-1.301-1.301c.75.265 1.608.133 2.25-.395l.374.374c.034.035.034.091 0 .125z" style="fill:var(--color2, #424852)"/>
    </symbol>
    <symbol id="icon-twitter" viewBox="0 0 32 32">
      <path fill="#fff" d="M10.914 26.667c9.908 0 15.328-8.21 15.328-15.317.002-.231-.001-.462-.01-.692 1.055-.764 1.966-1.71 2.69-2.793-.986.434-2.031.72-3.1.85 1.127-.673 1.97-1.733 2.374-2.982-1.058.628-2.217 1.068-3.425 1.301-.812-.865-1.886-1.438-3.057-1.63s-2.372.007-3.418.566c-1.046.56-1.878 1.448-2.368 2.529s-.609 2.292-.34 3.448c-2.142-.107-4.238-.663-6.151-1.632s-3.601-2.33-4.954-3.994c-.687 1.187-.896 2.59-.586 3.925s1.117 2.503 2.256 3.265c-.854-.028-1.69-.257-2.438-.669v.074c.002 1.243.433 2.447 1.22 3.409s1.881 1.623 3.099 1.872c-.462.127-.94.191-1.419.189-.338.004-.676-.028-1.008-.093.344 1.07 1.014 2.006 1.916 2.676s1.992 1.041 3.116 1.06c-1.91 1.498-4.268 2.311-6.695 2.309-.428.003-.855-.021-1.28-.074 2.464 1.571 5.325 2.405 8.247 2.404z" style="fill:var(--color3, #fff)"/>
    </symbol>
    <symbol id="icon-logo" viewBox="0 0 28 32">
      <path fill="#2e333e" d="M27.533 6.569C24.37 8.865 20.141 11.365 15.3 13.69c-4.519 2.18-8.909 3.895-12.621 4.999-.129-.349-.258-.698-.387-1.046C1.13 14.62.549 12.005.258 10.115-.032 8.081 0 6.889 0 6.889 0 3.082 3.421.001 7.65.001c2.518 0 4.745 1.104 6.133 2.79 1.388-1.686 3.615-2.79 6.133-2.79.484 0 .968.029 1.42.116h.032c2.195.378 3.002 2.819 1.42 4.272-3.196 2.936-8.166 6.51-15.848 10.347.29-.116 11.523-4.069 18.689-8.952.775-.523 1.872-.087 1.904.785z" style="fill:var(--color5, #2e333e)"/>
      <path fill="#b1040e" d="M27.759 8.08v.145c0 .814-.097 4.97-2.292 10.609-.742 1.889-1.259 3.837-1.678 5.784-.355 1.744-1.033 4.098-2.421 6.278-1.259 2.005-4.68 1.017-4.454-1.279l.484-4.534c.065-.581-.065-1.192-.355-1.715-.646-1.134-1.84-1.686-3.066-1.686s-2.421.552-3.066 1.686c-.258.436-.387.93-.387 1.424v.291l.484 4.534c.226 2.296-3.196 3.284-4.454 1.279-1.001-1.599-1.84-4.272-2.227-5.639-.129-.494.129-.988.678-1.192 10.297-3.72 18.528-10.899 18.786-11.132-6.907 4.04-13.202 6.714-17.656 8.342-1.323.494-2.808-.145-3.228-1.366v-.029c3.712-1.104 8.102-2.819 12.621-4.999 4.842-2.325 9.07-4.825 12.233-7.121v.32z" style="fill:var(--color1, #b1040e)"/>
    </symbol>
    <symbol id="icon-vector" viewBox="0 0 32 32">
      <path fill="#b1040e" d="M32 1.373V25.17c0 .364-.145.713-.402.971s-.607.402-.971.402-.713-.145-.971-.402-.402-.607-.402-.971V4.686L2.309 31.631c-.26.243-.604.375-.96.368s-.695-.15-.947-.402-.396-.591-.402-.947c-.006-.356.126-.7.368-.96L27.313 2.745H6.829c-.364 0-.713-.145-.971-.402s-.402-.607-.402-.971.145-.713.402-.971.607-.402.971-.402h23.797c.364 0 .713.145.971.402s.402.607.402.971z" style="fill:var(--color1, #b1040e)"/>
    </symbol>
    <symbol id="icon-youtube" viewBox="0 0 32 32">
      <path fill="#fff" d="M16 5.333c1.14 0 2.309.029 3.443.077l1.339.064 1.281.076 1.2.081 1.096.085c1.189.091 2.309.599 3.161 1.433s1.383 1.943 1.498 3.131l.053.567.1 1.213c.093 1.257.163 2.628.163 3.939s-.069 2.681-.163 3.939l-.1 1.213c-.017.195-.035.383-.053.567-.115 1.187-.646 2.296-1.499 3.131s-1.972 1.342-3.161 1.433l-1.093.084-1.2.083-1.283.076-1.339.064c-1.147.05-2.295.076-3.443.077-1.148-.002-2.296-.027-3.443-.077l-1.339-.064-1.281-.076-1.2-.083-1.096-.084c-1.189-.091-2.309-.599-3.161-1.433s-1.383-1.943-1.498-3.131l-.053-.567-.1-1.213c-.102-1.311-.156-2.624-.163-3.939 0-1.311.069-2.681.163-3.939l.1-1.213c.017-.195.035-.383.053-.567.115-1.187.646-2.295 1.497-3.13s1.971-1.342 3.16-1.434l1.095-.085 1.2-.081 1.283-.076 1.339-.064c1.147-.05 2.296-.076 3.444-.077zm-2.667 7.434v6.467c0 .616.667 1 1.2.693l5.6-3.233c.122-.07.223-.171.293-.293s.107-.26.107-.4c0-.141-.037-.279-.107-.4s-.172-.223-.293-.293l-5.6-3.232c-.122-.07-.26-.107-.4-.107s-.278.037-.4.107-.223.171-.293.293-.107.26-.107.4v-.001z" style="fill:var(--color3, #fff)"/>
    </symbol>
    <symbol id="icon-curve" viewBox="0 0 175 111" >
  <path d="M171.438 107.512C144.831 104.892 115.225 95.7251 99.1799 72.9474C95.116 67.1783 92.6223 60.2079 91.7676 53.0154M91.7676 53.0154C90.4662 42.0609 92.9666 30.5917 99.5115 22.0685C109.751 8.7333 125.809 -0.489917 142.626 5.90263C151.392 9.23463 157.576 15.9396 155.893 25.694C153.322 40.5963 133.927 50.1085 120.456 52.229C111.143 53.6953 101.467 53.9212 91.7676 53.0154ZM91.7676 53.0154C57.686 49.8326 23.3145 32.6748 3.37396 6.2404" stroke="#B1040E" stroke-width="6" stroke-linecap="round" />
</symbol>
  </defs>
</svg>
